<?xml version="1.0" encoding="utf-8"?>
<!-- Generator: Adobe Illustrator 28.3.0, SVG Export Plug-In . SVG Version: 6.00 Build 0)  -->
<svg version="1.1" id="Layer_1" xmlns="http://www.w3.org/2000/svg" xmlns:xlink="http://www.w3.org/1999/xlink" x="0px" y="0px"
	 viewBox="0 0 300 150"
	 fill="currentColor"
	 style="enable-background:new 0 0 300 150;" xml:space="preserve">
<style type="text/css">
	.nothing {fill:#054055;}

	svg{fill:currentColor !important;}
</style>
<g id="Logo">
	<g>
		<path d="M82.1,146.65H58.18V92.79c0-11.59-5.3-17.97-14.91-17.97c-12.32,0-14.91,9.77-14.91,17.97v53.86H4.44V90.73
			c0-24.95,14.52-39.85,38.83-39.85c23.95,0,38.83,15.27,38.83,39.85L82.1,146.65L82.1,146.65z"/>
		<path class="st0" d="M217.82,50.88h23.92v53.86c0,11.59,5.3,17.97,14.91,17.97c12.32,0,14.91-9.77,14.91-17.97V50.88h23.92v55.92
			c0,24.95-14.52,39.85-38.83,39.85c-23.95,0-38.83-15.27-38.83-39.85L217.82,50.88L217.82,50.88z"/>
		<g>
			<path class="st0" d="M135.37,146.65h-23.92V50.88h23.92V146.65z"/>
		</g>
		<path d="M188.56,146.65h-23.92V3h23.92V146.65z"/>
		<path d="M123.42,3.01c-6.6,0-11.97,5.37-11.97,11.97s5.37,11.97,11.97,11.97c6.6,0,11.97-5.37,11.97-11.97
			C135.39,8.38,130.02,3.01,123.42,3.01z"/>
	</g>
</g>
</svg>
