<?xml version="1.0" encoding="utf-8"?>
<!-- Generator: Adobe Illustrator 28.0.0, SVG Export Plug-In . SVG Version: 6.00 Build 0)  -->
<svg version="1.1" id="Laag_1" xmlns="http://www.w3.org/2000/svg" xmlns:xlink="http://www.w3.org/1999/xlink" x="0px" y="0px"
	 viewBox="0 0 566.93 566.93" style="enable-background:new 0 0 566.93 566.93;" xml:space="preserve">
<style type="text/css">
	.st0{fill:none;}
	.st1{fill:#FFFFFF;}
	.st2{fill:#005172;}
	.st3{fill:url(#SVGID_1_);}
	.st4{fill:url(#SVGID_00000071536459882986180760000014444478391991132341_);}
	.st5{fill:url(#SVGID_00000098212737357593081260000011980735842488075693_);}
	.st6{fill:url(#SVGID_00000027579752769612796990000000711715684593133211_);}
	.st7{fill:url(#SVGID_00000149357602206612108950000013296820668309584557_);}
	.st8{fill:url(#SVGID_00000090284895813451176980000016512874199404259256_);}
	.st9{fill:url(#SVGID_00000175283826666872157710000016543836519015207570_);}
	.st10{fill:url(#SVGID_00000022550906765338039600000001742835450537319066_);}
	.st11{fill:#999999;}
	.st12{fill:#008A00;}
	.st13{fill:url(#SVGID_00000020400944641829708580000007431927416706097080_);}
</style>
<rect class="st0" width="566.93" height="566.93"/>
<path class="st1" d="M153.79,167.74c-6.8-44.8-35-93.8-46.6-93.4c-11.19,0.39-23.35,28.62-23.35,28.62S65.99,86.94,58.19,90.34
	c-6.55,2.85-12.74,29.68-12.6,50c0.2,28.4,16.91,45.38,28.6,57.2c5.68,5.74,0.2,0.4,0.2,0.4s-20.34-11.06-22.6-8.8
	c-2.26,2.26,18.5,29,18.5,29s-27.04-4.66-29.3-2.4c-2.26,2.26,20.4,26.8,37.6,29.4c13.58,2.05,59.45,2.36,59.45,2.36h15.55l1.4,0
	l1.4,0.04h0.2C156.59,247.54,159.97,208.48,153.79,167.74z"/>
<path class="st2" d="M427.19,192.26l-135.13,41.55v2.22c0,2.77,0.77,144.59,0.8,150.62l0.01,1.54l110.97,78.32l139.05-74.88V236.37
	L427.19,192.26z M431.25,277.77l-21.08-10.02l26.13-9.67l21.14,9.43L431.25,277.77z M429.97,278.27l-25.72,10.08l-20.92-10.67
	l25.53-9.45L429.97,278.27z M382.12,277.06l-21.22-10.82l25.19-8.84l21.52,10.23L382.12,277.06z M378.39,281.9l-0.02,29.75
	l-21.4-11.75l0.02-28.92L378.39,281.9z M379.39,282.41l21.7,11.07l-0.02,30.64l-21.7-11.91L379.39,282.41z M401.07,325.25
	l-0.02,32.92l-21.7-12.79l0.02-32.04L401.07,325.25z M407.07,325.62l26.7-11.25l-0.02,32.15l-26.7,12.11L407.07,325.62z
	 M407.07,324.54l0.02-30.85l26.7-10.46l-0.02,30.07L407.07,324.54z M434.79,282.83l26.6-10.42l-0.02,29.25l-26.6,11.2L434.79,282.83
	z M458.75,267l-21.11-9.41l24.81-9.18l21.07,8.89L458.75,267z M436.34,257l-21.62-9.64l24.71-8.67l21.68,9.15L436.34,257z
	 M435,257.5l-26.09,9.65l-21.49-10.22l25.92-9.09L435,257.5z M386.15,256.33l-19.51-9.28l25.75-8.55l19.63,8.75L386.15,256.33z
	 M384.8,256.8l-25.14,8.82l-19.3-9.85l24.89-8.27L384.8,256.8z M355.99,270.47l-0.02,28.88l-19.8-10.87l0.02-28.11L355.99,270.47z
	 M355.97,300.49l-0.02,31.1l-19.8-11.67l0.02-30.3L355.97,300.49z M356.97,301.04l21.4,11.75l-0.02,32l-21.4-12.61L356.97,301.04z
	 M378.35,345.95l-0.02,30.04l-21.4-12.77l0.02-29.88L378.35,345.95z M379.35,346.54l21.7,12.79l-0.02,30.21l-21.7-12.95
	L379.35,346.54z M407.05,359.74l26.7-12.11l-0.02,30.13l-26.7,12.27L407.05,359.74z M434.75,347.18l26.6-12.07l-0.02,29.97
	l-26.6,12.22L434.75,347.18z M434.75,346.08l0.02-32.12l26.6-11.2l-0.02,31.26L434.75,346.08z M462.37,302.33l25.2-10.61
	l-0.02,30.41l-25.2,11.43L462.37,302.33z M462.37,301.24l0.02-29.22l25.2-9.87l-0.02,28.48L462.37,301.24z M484.86,256.77
	l-21.03-8.87l25.33-9.37l20.94,8.35L484.86,256.77z M462.48,247.33l-21.65-9.13l25.28-8.87l21.66,8.64L462.48,247.33z
	 M439.46,237.62l-19.58-8.26l25.27-8.39l19.54,7.8L439.46,237.62z M438.06,238.11l-24.67,8.65l-19.6-8.74l24.66-8.19L438.06,238.11z
	 M392.44,237.43l-20.24-9.03l24.52-7.73l20.34,8.58L392.44,237.43z M391.03,237.89l-25.7,8.53l-20.07-9.54l25.49-8.03L391.03,237.89
	z M363.95,246.88l-24.84,8.25l-19.76-10.08l24.51-7.72L363.95,246.88z M335.19,259.86l-0.02,28.07l-20-10.98l0.02-27.29
	L335.19,259.86z M335.17,289.07l-0.02,30.26l-20-11.78l0.02-29.46L335.17,289.07z M314.15,306.96l-15.77-9.29
	c-0.05-10.24-0.11-20.13-0.15-28.88l15.94,8.75L314.15,306.96z M298.39,298.84l15.76,9.29l-0.02,29.57l-15.59-9.3
	C298.49,318.71,298.44,308.63,298.39,298.84z M315.15,308.71l20,11.78l-0.02,29.72l-20-11.93L315.15,308.71z M336.15,321.09
	l19.8,11.67l-0.02,29.87l-19.8-11.81L336.15,321.09z M355.93,363.79l-0.02,32.9l-19.8-13.01l0.02-31.7L355.93,363.79z
	 M356.93,364.39l21.4,12.77l-0.02,34.25l-21.4-14.06L356.93,364.39z M379.33,377.75l21.7,12.95l-0.02,35.62l-21.7-14.26
	L379.33,377.75z M407.03,391.13l26.7-12.27l-0.02,34.46l-26.7,13.57L407.03,391.13z M434.73,378.4l26.6-12.22l-0.02,33.12
	l-26.6,13.52L434.73,378.4z M462.33,365.72l25.2-11.58l-0.02,31.84l-25.2,12.8L462.33,365.72z M462.33,364.62l0.02-29.97l25.2-11.43
	l-0.02,29.82L462.33,364.62z M488.55,322.77l25.4-11.52l-0.02,29.66l-25.4,11.67L488.55,322.77z M514.95,310.8l21.94-9.95v29.52
	l-21.95,10.09L514.95,310.8z M536.89,299.75l-21.94,9.95l0.02-29.52l21.92-9.23V299.75z M513.95,310.15l-25.4,11.52l0.02-30.38
	l25.4-10.7L513.95,310.15z M488.57,290.21l0.02-28.45l25.4-9.95l-0.02,27.7L488.57,290.21z M511.46,246.35l-20.9-8.34l20.19-7.47
	l20.81,7.93L511.46,246.35z M489.17,237.46l-21.63-8.63l20.16-7.07l21.62,8.24L489.17,237.46z M466.13,228.27l-19.5-7.78l20.18-6.7
	l19.46,7.42L466.13,228.27z M445.19,219.91l-20.33-8.11l20.11-6.34l20.36,7.76L445.19,219.91z M443.71,220.4l-25.22,8.38
	l-20.31-8.57l25.17-7.93L443.71,220.4z M396.76,219.61l-16.05-6.77l24.88-7.65l16.3,6.5L396.76,219.61z M395.29,220.07l-24.47,7.71
	l-15.81-7.05l24.21-7.44L395.29,220.07z M369.37,228.24l-25.44,8.02l-15.47-7.36l25.09-7.72L369.37,228.24z M342.53,236.7
	l-24.45,7.71l-15.06-7.68l24.03-7.39L342.53,236.7z M314.19,249.15l-0.02,27.25l-15.95-8.76c-0.06-11.71-0.11-21.27-0.14-26.71
	L314.19,249.15z M298.55,329.56l15.58,9.29l-0.02,30.38l-15.4-10.12C298.66,350.4,298.61,340.25,298.55,329.56z M315.13,339.45
	l20,11.93l-0.02,31.64l-20-13.14L315.13,339.45z M335.11,384.22l-0.02,26.44l-20-14.12l0.02-25.46L335.11,384.22z M336.11,384.88
	l19.8,13.01l-0.02,27.45l-19.8-13.98L336.11,384.88z M356.91,398.54l21.4,14.06l-0.02,28.55l-21.4-15.1L356.91,398.54z
	 M379.31,413.26l21.7,14.26L401,457.17l-21.7-15.32L379.31,413.26z M407.01,428.01l26.7-13.57l-0.02,29.18L407,458L407.01,428.01z
	 M434.71,413.94l26.6-13.52l-0.02,28.34l-26.6,14.32L434.71,413.94z M462.31,399.91l25.2-12.8l-0.02,27.55l-25.2,13.57
	L462.31,399.91z M488.51,386.6l25.4-12.91l-0.02,26.74l-25.4,13.68L488.51,386.6z M488.51,385.48l0.02-31.79l25.4-11.67l-0.02,30.56
	L488.51,385.48z M514.93,341.55l21.96-10.09v29.44l-21.97,11.16L514.93,341.55z M536.89,269.86l-21.92,9.23l0.02-27.68l21.9-8.58
	V269.86z M443.46,204.89l-20.07,6.33l-16.28-6.5l19.88-6.11L443.46,204.89z M298.72,360.31l15.4,10.11l-0.02,25.41l-15.25-10.76
	C298.83,381.58,298.78,372.44,298.72,360.31z M514.9,399.9l0.02-26.71l21.97-11.17v26.04L514.9,399.9z"/>
<linearGradient id="SVGID_1_" gradientUnits="userSpaceOnUse" x1="379.8933" y1="186.4295" x2="427.0878" y2="186.4295">
	<stop  offset="0" style="stop-color:#FFFFFF"/>
	<stop  offset="0.8" style="stop-color:#005172"/>
</linearGradient>
<path class="st3" d="M427.09,192.21c0,0-39.05-14.96-47.02-17.96c-0.5-0.19,0.23,0.99,0.2,0.92c0.06,0.11,0.12,0.21,0.18,0.31
	c-0.07-0.03-0.13-0.05-0.2-0.08c-0.36-0.13-0.08,0.44,0.07,0.72c-0.03,0.18,0.22,0.64,0.29,0.75c-0.09-0.03-0.18-0.07-0.27-0.1
	c-0.37-0.14-0.05,0.51,0.08,0.73c-0.33-0.09,0.02,0.58,0.12,0.75c-0.1-0.04-0.2-0.07-0.3-0.11c-0.45-0.17,0.13,0.82,0.1,0.78
	c0.01,0.01,0.01,0.03,0.02,0.04c-0.43-0.16,0.11,0.8,0.09,0.76c0.21,0.4,0.43,0.78,0.67,1.16c0.11,0.22,0.25,0.4,0.44,0.55
	c0.7,0.29,45.54,17.21,45.54,17.21V192.21z"/>
<linearGradient id="SVGID_00000105411990303932878000000017001537304478011281_" gradientUnits="userSpaceOnUse" x1="921.8763" y1="-470.7714" x2="969.0708" y2="-470.7714" gradientTransform="matrix(0.9945 0.1045 -0.1045 0.9945 -715.0126 595.1931)">
	<stop  offset="0" style="stop-color:#FFFFFF"/>
	<stop  offset="0.8" style="stop-color:#005172"/>
</linearGradient>
<path style="fill:url(#SVGID_00000105411990303932878000000017001537304478011281_);" d="M297.35,234.04
	c0,0-37.27-18.96-44.89-22.78c-0.47-0.24,0.13,1.01,0.1,0.94c0.05,0.11,0.1,0.22,0.15,0.33c-0.06-0.03-0.13-0.06-0.19-0.1
	c-0.34-0.17-0.13,0.43-0.01,0.72c-0.04,0.18,0.15,0.66,0.21,0.77c-0.09-0.04-0.17-0.09-0.26-0.13c-0.36-0.18-0.1,0.5,0,0.73
	c-0.32-0.13-0.04,0.58,0.04,0.76c-0.09-0.05-0.19-0.1-0.28-0.14c-0.43-0.22,0.04,0.83,0.02,0.78c0.01,0.01,0.01,0.03,0.02,0.04
	c-0.41-0.2,0.03,0.81,0.01,0.76c0.17,0.42,0.35,0.82,0.55,1.23c0.08,0.23,0.21,0.43,0.38,0.6c0.67,0.36,43.49,21.88,43.49,21.88
	L297.35,234.04z"/>
<linearGradient id="SVGID_00000023249831586181591880000007653121498585630099_" gradientUnits="userSpaceOnUse" x1="364.3972" y1="195.5915" x2="401.7486" y2="195.5915">
	<stop  offset="0" style="stop-color:#FFFFFF"/>
	<stop  offset="0.8" style="stop-color:#005172"/>
</linearGradient>
<path style="fill:url(#SVGID_00000023249831586181591880000007653121498585630099_);" d="M401.7,203.41
	C401.7,203.41,401.7,203.41,401.7,203.41c0.07,0.03,0.02-0.1,0.01-0.12c0.07,0.03,0-0.14,0-0.14c-0.01-0.02-0.02-0.06-0.03-0.1
	c0.01,0.01,0.03,0.01,0.04,0.02c0.08,0.03,0-0.14,0-0.15c-0.02-0.06-0.09-0.29-0.16-0.34c-0.04-0.11-0.09-0.22-0.14-0.24
	c-12.33-4.94-24.68-9.82-36.99-14.8c-0.09-0.04,0.04,0.18,0.03,0.17c0.01,0.01,0.02,0.03,0.03,0.05c-0.01,0-0.02-0.01-0.03-0.01
	c-0.07-0.03-0.01,0.08,0.01,0.13c0,0.03,0.04,0.11,0.05,0.13c-0.02-0.01-0.03-0.01-0.05-0.02c-0.07-0.03-0.01,0.09,0.01,0.13
	c-0.06-0.01,0,0.11,0.02,0.14c-0.02-0.01-0.04-0.01-0.05-0.02c-0.08-0.03,0.02,0.15,0.02,0.14c0,0,0,0,0,0.01
	c-0.07-0.03,0.02,0.15,0.02,0.14c0.03,0.07,0.11,0.28,0.2,0.31c6.15,2.49,12.32,4.94,18.48,7.4c4.15,1.66,8.28,3.33,12.43,4.98
	c2.01,0.8,4.01,1.6,6,2.43c0.06,0.02,0.03-0.06,0.01-0.11c0.03,0.01,0.06,0.02,0.09,0.04c0.07,0.03,0.01-0.13,0.01-0.13
	C401.71,203.44,401.71,203.43,401.7,203.41z"/>
<linearGradient id="SVGID_00000012431209390785866190000015946510548354339970_" gradientUnits="userSpaceOnUse" x1="573.6548" y1="-9.5335" x2="611.0062" y2="-9.5335" gradientTransform="matrix(0.9994 0.0349 -0.0349 0.9994 -235.2295 191.8472)">
	<stop  offset="0" style="stop-color:#FFFFFF"/>
	<stop  offset="0.8" style="stop-color:#005172"/>
</linearGradient>
<path style="fill:url(#SVGID_00000012431209390785866190000015946510548354339970_);" d="M375.42,211.46
	C375.42,211.46,375.42,211.46,375.42,211.46c0.07,0.03,0.02-0.1,0.01-0.12c0.07,0.03,0-0.14,0-0.14c-0.01-0.02-0.02-0.06-0.03-0.1
	c0.01,0.01,0.03,0.01,0.04,0.02c0.08,0.04,0-0.14,0-0.14c-0.02-0.06-0.08-0.29-0.15-0.35c-0.03-0.11-0.08-0.22-0.13-0.24
	c-12.15-5.37-24.32-10.67-36.45-16.09c-0.09-0.04,0.04,0.18,0.03,0.17c0.01,0.01,0.01,0.03,0.02,0.05c-0.01,0-0.02-0.01-0.03-0.01
	c-0.06-0.03-0.02,0.08,0.01,0.13c0,0.03,0.04,0.12,0.05,0.14c-0.02-0.01-0.03-0.01-0.05-0.02c-0.07-0.03-0.01,0.09,0.01,0.13
	c-0.05-0.02,0,0.11,0.02,0.14c-0.02-0.01-0.03-0.02-0.05-0.02c-0.08-0.04,0.02,0.15,0.01,0.14c0,0,0,0.01,0,0.01
	c-0.07-0.03,0.01,0.15,0.01,0.14c0.03,0.07,0.1,0.28,0.19,0.32c6.06,2.71,12.14,5.37,18.21,8.05c4.08,1.8,8.16,3.62,12.25,5.41
	c1.98,0.87,3.95,1.73,5.92,2.64c0.06,0.03,0.03-0.06,0.02-0.11c0.03,0.01,0.06,0.03,0.09,0.04c0.07,0.03,0.01-0.13,0.01-0.13
	C375.42,211.49,375.42,211.47,375.42,211.46z"/>
<linearGradient id="SVGID_00000149361261381611316340000014090673309885169286_" gradientUnits="userSpaceOnUse" x1="548.201" y1="-0.8724" x2="585.5524" y2="-0.8724" gradientTransform="matrix(0.9994 0.0349 -0.0349 0.9994 -235.0889 191.8797)">
	<stop  offset="0" style="stop-color:#FFFFFF"/>
	<stop  offset="0.8" style="stop-color:#005172"/>
</linearGradient>
<path style="fill:url(#SVGID_00000149361261381611316340000014090673309885169286_);" d="M349.82,219.26
	C349.82,219.26,349.82,219.26,349.82,219.26c0.07,0.03,0.02-0.1,0.01-0.12c0.07,0.03,0-0.14,0-0.14c-0.01-0.02-0.02-0.06-0.03-0.1
	c0.01,0.01,0.03,0.01,0.04,0.02c0.08,0.04,0-0.14,0-0.14c-0.02-0.06-0.08-0.29-0.15-0.35c-0.03-0.11-0.08-0.22-0.13-0.24
	c-12.15-5.37-24.32-10.67-36.45-16.09c-0.09-0.04,0.04,0.18,0.03,0.17c0.01,0.01,0.01,0.03,0.02,0.05c-0.01,0-0.02-0.01-0.03-0.01
	c-0.06-0.03-0.02,0.08,0.01,0.13c0,0.03,0.04,0.12,0.05,0.14c-0.02-0.01-0.03-0.01-0.05-0.02c-0.07-0.03-0.01,0.09,0.01,0.13
	c-0.05-0.02,0,0.11,0.02,0.14c-0.02-0.01-0.03-0.02-0.05-0.02c-0.08-0.04,0.02,0.15,0.01,0.14c0,0,0,0.01,0,0.01
	c-0.07-0.03,0.01,0.15,0.01,0.14c0.03,0.07,0.1,0.28,0.19,0.32c6.06,2.71,12.14,5.37,18.21,8.05c4.08,1.8,8.16,3.62,12.25,5.41
	c1.98,0.87,3.95,1.73,5.92,2.64c0.06,0.03,0.03-0.06,0.02-0.11c0.03,0.01,0.06,0.03,0.09,0.04c0.07,0.03,0.01-0.13,0.01-0.13
	C349.82,219.29,349.82,219.27,349.82,219.26z"/>
<linearGradient id="SVGID_00000130630851856792981170000005417779058043490180_" gradientUnits="userSpaceOnUse" x1="747.4646" y1="-220.41" x2="784.816" y2="-220.41" gradientTransform="matrix(0.9976 0.0698 -0.0698 0.9976 -474.3761 384.6209)">
	<stop  offset="0" style="stop-color:#FFFFFF"/>
	<stop  offset="0.8" style="stop-color:#005172"/>
</linearGradient>
<path style="fill:url(#SVGID_00000130630851856792981170000005417779058043490180_);" d="M323.31,227.29
	C323.31,227.29,323.31,227.29,323.31,227.29c0.07,0.03,0.03-0.1,0.02-0.12c0.07,0.03,0.01-0.14,0.01-0.14
	c-0.01-0.02-0.01-0.06-0.03-0.11c0.01,0.01,0.03,0.01,0.04,0.02c0.08,0.04,0.01-0.14,0.01-0.14c-0.02-0.07-0.06-0.29-0.13-0.35
	c-0.03-0.11-0.07-0.22-0.12-0.25c-11.95-5.79-23.93-11.51-35.86-17.35c-0.09-0.04,0.03,0.19,0.02,0.17
	c0.01,0.01,0.01,0.03,0.02,0.06c-0.01,0-0.02-0.01-0.03-0.01c-0.06-0.03-0.02,0.08,0,0.13c0,0.03,0.03,0.12,0.04,0.14
	c-0.02-0.01-0.03-0.01-0.05-0.02c-0.07-0.03-0.01,0.09,0,0.13c-0.05-0.02,0,0.11,0.01,0.14c-0.02-0.01-0.03-0.02-0.05-0.02
	c-0.08-0.04,0.01,0.15,0.01,0.14c0,0,0,0.01,0,0.01c-0.07-0.03,0.01,0.15,0.01,0.14c0.03,0.07,0.09,0.29,0.17,0.33
	c5.96,2.92,11.95,5.79,17.92,8.68c4.02,1.94,8.03,3.9,12.05,5.84c1.95,0.94,3.89,1.87,5.82,2.84c0.06,0.03,0.03-0.06,0.02-0.11
	c0.03,0.01,0.06,0.03,0.08,0.04c0.07,0.04,0.01-0.13,0.01-0.13C323.32,227.32,323.31,227.31,323.31,227.29z"/>
<linearGradient id="SVGID_00000088814586726658508350000002874775048858565790_" gradientUnits="userSpaceOnUse" x1="933.3469" y1="-418.7195" x2="970.6982" y2="-418.7195" gradientTransform="matrix(0.9945 0.1045 -0.1045 0.9945 -713.7026 573.903)">
	<stop  offset="0" style="stop-color:#FFFFFF"/>
	<stop  offset="0.8" style="stop-color:#005172"/>
</linearGradient>
<path style="fill:url(#SVGID_00000088814586726658508350000002874775048858565790_);" d="M294.58,266.71
	C294.58,266.71,294.58,266.71,294.58,266.71c0.07,0.04,0.03-0.1,0.02-0.12c0.07,0.03,0.01-0.14,0.01-0.14
	c0-0.02-0.01-0.06-0.02-0.11c0.01,0.01,0.02,0.01,0.04,0.02c0.07,0.04,0.01-0.14,0.01-0.14c-0.02-0.07-0.05-0.3-0.12-0.36
	c-0.03-0.11-0.06-0.23-0.11-0.25c-11.74-6.2-23.52-12.34-35.24-18.59c-0.09-0.05,0.02,0.19,0.02,0.17c0.01,0.01,0.01,0.03,0.02,0.06
	c-0.01,0-0.02-0.01-0.03-0.01c-0.06-0.03-0.02,0.08,0,0.13c-0.01,0.03,0.03,0.12,0.04,0.14c-0.02-0.01-0.03-0.02-0.05-0.02
	c-0.06-0.03-0.02,0.09,0,0.13c-0.05-0.02-0.01,0.11,0.01,0.14c-0.02-0.01-0.03-0.02-0.05-0.03c-0.08-0.04,0.01,0.15,0,0.14
	c0,0,0,0.01,0,0.01c-0.07-0.03,0,0.15,0,0.14c0.03,0.08,0.08,0.29,0.16,0.33c5.86,3.12,11.74,6.2,17.61,9.3
	c3.95,2.08,7.89,4.18,11.84,6.26c1.91,1,3.82,2.01,5.72,3.04c0.05,0.03,0.04-0.06,0.02-0.11c0.03,0.02,0.06,0.03,0.08,0.05
	c0.07,0.04,0.02-0.13,0.02-0.13C294.59,266.74,294.58,266.73,294.58,266.71z"/>
<linearGradient id="SVGID_00000039122571301577649250000007509123125687898278_" gradientUnits="userSpaceOnUse" x1="1320.42" y1="-857.0677" x2="1357.7715" y2="-857.0677" gradientTransform="matrix(0.9848 0.1736 -0.1736 0.9848 -1190.5077 927.5055)">
	<stop  offset="0" style="stop-color:#FFFFFF"/>
	<stop  offset="0.8" style="stop-color:#005172"/>
</linearGradient>
<path style="fill:url(#SVGID_00000039122571301577649250000007509123125687898278_);" d="M294.06,326.92
	C294.06,326.92,294.06,326.93,294.06,326.92c0.06,0.04,0.04-0.09,0.03-0.12c0.07,0.04,0.02-0.13,0.02-0.14
	c0-0.02-0.01-0.06-0.02-0.11c0.01,0.01,0.02,0.01,0.04,0.02c0.07,0.05,0.02-0.14,0.02-0.14c-0.01-0.07-0.03-0.3-0.1-0.36
	c-0.02-0.11-0.05-0.23-0.1-0.26c-11.28-7.01-22.6-13.95-33.85-21c-0.08-0.05,0.01,0.19,0,0.17c0,0.02,0.01,0.04,0.02,0.06
	c-0.01-0.01-0.02-0.01-0.03-0.02c-0.06-0.04-0.03,0.08-0.01,0.13c-0.01,0.03,0.02,0.12,0.03,0.14c-0.01-0.01-0.03-0.02-0.04-0.03
	c-0.06-0.04-0.02,0.09-0.01,0.13c-0.05-0.02-0.01,0.11,0,0.14c-0.02-0.01-0.03-0.02-0.05-0.03c-0.07-0.05,0,0.15-0.01,0.14
	c0,0,0,0.01,0,0.01c-0.07-0.04-0.01,0.15-0.01,0.14c0.02,0.08,0.06,0.29,0.14,0.34c5.62,3.52,11.28,7,16.91,10.5
	c3.79,2.35,7.58,4.72,11.38,7.07c1.84,1.13,3.67,2.27,5.49,3.44c0.05,0.03,0.04-0.06,0.03-0.11c0.03,0.02,0.05,0.03,0.08,0.05
	c0.07,0.04,0.03-0.12,0.03-0.13C294.06,326.96,294.06,326.94,294.06,326.92z"/>
<g>
	<g>
		<path class="st11" d="M307.82,313.58c-0.07-0.02-0.13-0.07-0.17-0.13c-0.07-0.11-0.08-0.25-0.01-0.36l2.41-4.25l-2.13-4.39
			c-0.06-0.12-0.04-0.26,0.04-0.36c0.08-0.1,0.21-0.15,0.34-0.13l4.78,0.98l3.52-3.38c0.09-0.09,0.23-0.12,0.36-0.08
			s0.21,0.16,0.23,0.29l0.55,4.85l4.31,2.3c0.12,0.06,0.19,0.18,0.18,0.32c0,0.13-0.08,0.25-0.2,0.3l-4.44,2.02l-0.86,4.8
			c-0.02,0.13-0.12,0.23-0.24,0.27c-0.13,0.04-0.26,0-0.35-0.1l-3.29-3.6l-4.83,0.67C307.93,313.6,307.88,313.6,307.82,313.58z"/>
	</g>
</g>
<g>
	<g>
		<path class="st12" d="M330.72,299.32c-0.03-0.01-0.06-0.04-0.09-0.07c-0.04-0.06-0.04-0.13-0.01-0.19l1.23-2.17l-1.09-2.24
			c-0.03-0.06-0.02-0.13,0.02-0.18s0.11-0.08,0.17-0.06l2.44,0.5l1.8-1.73c0.05-0.05,0.12-0.06,0.18-0.04s0.11,0.08,0.12,0.15
			l0.28,2.48l2.2,1.17c0.06,0.03,0.1,0.09,0.09,0.16c0,0.07-0.04,0.13-0.1,0.15l-2.27,1.03l-0.44,2.46
			c-0.01,0.07-0.06,0.12-0.12,0.14c-0.06,0.02-0.13,0-0.18-0.05l-1.68-1.84l-2.47,0.34C330.78,299.34,330.75,299.33,330.72,299.32z"
			/>
	</g>
</g>
<g>
	<g>
		<path class="st12" d="M293.68,315.73c-0.04-0.01-0.07-0.04-0.1-0.08c-0.04-0.06-0.05-0.14-0.01-0.21l1.38-2.44l-1.23-2.52
			c-0.03-0.07-0.02-0.15,0.02-0.21c0.05-0.06,0.12-0.09,0.2-0.07l2.75,0.56l2.02-1.94c0.05-0.05,0.13-0.07,0.2-0.04
			c0.07,0.03,0.12,0.09,0.13,0.16l0.31,2.79l2.47,1.32c0.07,0.04,0.11,0.11,0.1,0.18c0,0.08-0.05,0.14-0.12,0.17l-2.55,1.16
			l-0.49,2.76c-0.01,0.07-0.07,0.13-0.14,0.16c-0.07,0.02-0.15,0-0.2-0.06l-1.89-2.07l-2.78,0.39
			C293.75,315.74,293.71,315.74,293.68,315.73z"/>
	</g>
</g>
<g>
	<g>
		<path class="st12" d="M281.55,335.88c-0.04-0.02-0.08-0.04-0.11-0.08c-0.05-0.07-0.05-0.16-0.01-0.23l1.52-2.68l-1.35-2.78
			c-0.04-0.07-0.03-0.16,0.02-0.23s0.13-0.1,0.22-0.08l3.02,0.62l2.22-2.14c0.06-0.06,0.15-0.08,0.23-0.05
			c0.08,0.03,0.13,0.1,0.14,0.18l0.35,3.07l2.72,1.45c0.07,0.04,0.12,0.12,0.12,0.2c0,0.08-0.05,0.16-0.13,0.19l-2.81,1.28
			l-0.54,3.04c-0.01,0.08-0.07,0.15-0.15,0.17c-0.08,0.02-0.17,0-0.22-0.06l-2.08-2.28l-3.06,0.42
			C281.62,335.89,281.58,335.89,281.55,335.88z"/>
	</g>
</g>
<g>
	<g>
		<path class="st12" d="M253.95,320.08c-0.04-0.02-0.08-0.04-0.11-0.08c-0.05-0.07-0.05-0.16-0.01-0.23l1.52-2.68l-1.35-2.78
			c-0.04-0.07-0.03-0.16,0.02-0.23c0.05-0.07,0.13-0.1,0.22-0.08l3.02,0.62l2.22-2.14c0.06-0.06,0.15-0.08,0.23-0.05
			c0.08,0.03,0.13,0.1,0.14,0.18l0.35,3.07l2.72,1.45c0.07,0.04,0.12,0.12,0.12,0.2c0,0.08-0.05,0.16-0.13,0.19l-2.81,1.28
			l-0.54,3.04c-0.01,0.08-0.07,0.15-0.15,0.17c-0.08,0.02-0.17,0-0.22-0.06l-2.08-2.28l-3.06,0.42
			C254.02,320.09,253.98,320.09,253.95,320.08z"/>
	</g>
</g>
<rect x="173.2" y="342" class="st1" width="383.2" height="76.6"/>
<g>
	<g>
		<path class="st1" d="M326.34,312.84l30.15-12.47l22.4,12.47v33.4l-30.6,12.47l-21.95-12.47
			C326.34,346.24,326.34,313.44,326.34,312.84z"/>
		<path class="st12" d="M348.22,359.82l-22.87-13v-34.65l31.21-12.91l23.33,12.99v34.66L348.22,359.82z M327.34,345.65l21.02,11.95
			l29.53-12.04v-32.14l-21.46-11.95l-29.08,12.03V345.65z"/>
	</g>
	<polygon class="st12" points="348.22,325.53 325.87,313.72 326.81,311.95 348.36,323.34 378.53,311.9 379.24,313.77 	"/>
	<rect x="347.29" y="324.44" class="st12" width="2" height="34.25"/>
</g>
<g>
	<path d="M251.95,386.93h-15.09c-0.51,0-0.89-0.47-0.79-0.97c1.16-5.81,3.89-14.68,7.72-24.56c0.26-0.68,1.23-0.69,1.5-0.02
		c4.07,9.93,6.56,18.88,7.46,24.61C252.83,386.49,252.45,386.93,251.95,386.93z M249.29,351.84h-9.12c-0.32,0-0.61,0.19-0.74,0.48
		c-5.85,13.03-13.9,38.39-16.05,56.52c-0.06,0.48,0.32,0.91,0.8,0.91h7.01c0.39,0,0.73-0.29,0.8-0.68c0.99-5.8,1.3-9.61,2.35-14.68
		c0.08-0.38,0.41-0.65,0.79-0.65h18.48c0.39,0,0.72,0.27,0.79,0.65c0.92,4.72,1.85,8.55,2.77,14.66c0.06,0.4,0.4,0.69,0.8,0.69h7.16
		c0.5,0,0.88-0.44,0.8-0.93c-2.48-16.29-8.86-41.81-15.93-56.51C249.89,352.01,249.6,351.84,249.29,351.84z"/>
	<path d="M325.89,368.24c0,2.85,0.47,6.55-3,9c-3.4,2.4-7.38,2.23-10.91,2.23h-6.39v-21.02c1.24-0.24,5.31-0.6,8.1-0.6
		C322.86,357.84,325.89,360.53,325.89,368.24z M337.29,408.1c-1.13-2.09-2.4-6.27-6-12.87c-2.72-4.99-4.6-8-7.76-10.8
		c9.96-4.4,11.08-10.55,11.08-17.03c0-4.64-1.48-9.09-4.53-11.77c-3.69-3.34-8.63-4.6-16.6-4.6c-5.19,0-12.7,1.03-16.32,1.77
		c-0.47,0.1-0.8,0.5-0.8,0.98v54.79c0,0.55,0.45,1,1,1h7.22c0.55,0,1-0.45,1-1l-0.2-22.54h6.3c5.6,0,7.4,4.8,10.2,10
		c3.97,7.37,5.3,11.51,6.18,13.04c0.18,0.31,0.51,0.5,0.87,0.5h7.47c0.35,0,0.68-0.19,0.86-0.49
		C337.44,408.79,337.45,408.41,337.29,408.1z"/>
	<path d="M217.04,351.84h-31.53c-0.55,0-1,0.45-1,1v55.94c0,0.55,0.45,1,1,1h7.22c0.55,0,1-0.45,1-1v-24.31h20.16c0.55,0,1-0.45,1-1
		v-5.98c0-0.55-0.45-1-1-1h-20.16v-16.59h23.31c0.55,0,1-0.45,1-1v-6.06C218.04,352.28,217.59,351.84,217.04,351.84z"/>
	<path d="M283.13,351.84h-7.22c-0.55,0-1,0.45-1,1v55.94c0,0.55,0.45,1,1,1h7.22c0.55,0,1-0.45,1-1v-55.94
		C284.13,352.28,283.68,351.84,283.13,351.84z"/>
	<path d="M353.27,366.44h-7.22c-0.55,0-1,0.45-1,1v41.34c0,0.55,0.45,1,1,1h7.22c0.55,0,1-0.45,1-1v-41.34
		C354.27,366.88,353.82,366.44,353.27,366.44z"/>
	<path d="M388.26,358.58c4.04,0,7.03,0.85,10.25,1.62c0.29,0.07,0.57,0.13,0.84,0.01c0.27-0.12,0.47-0.35,0.55-0.63l0.14-4.89
		c0-0.5-0.08-0.94-0.5-1.17c-3.95-2.13-9.49-2.4-11.54-2.4c-7.41,0-12.81,1.08-17.42,6.02c-5.31,5.69-5.99,15.91-5.99,24.76
		c0,9.03,0.52,17.66,5.81,22.95c4.27,4.27,9.6,5.95,16.23,5.95c5.97,0,10.75-1.03,13.42-2.36c0.42-0.21,0.52-0.45,0.52-1.15
		l-0.09-4.93c-0.08-0.29-0.28-0.53-0.55-0.66c-0.27-0.13-0.56-0.05-0.86,0.01c-3.47,0.68-6.77,1.42-10.95,1.42
		c-3.92,0-7.52-1.35-10.52-4.6c-3.48-3.77-4-10.43-4-16.95c0-6.85,0.21-15.01,4-18.8C380.6,359.8,384,358.58,388.26,358.58z"/>
	<path d="M449.24,351.84h-7.3c-0.55,0-1,0.45-1,1v33.12c0,10.88-1.85,17.28-11.65,17.28c-10.2,0-10.99-6.42-10.99-17.28v-33.12
		c0-0.55-0.45-1-1-1h-7.3c-0.55,0-1,0.45-1,1v32.95c0,8.47,0.7,15.21,4.69,19.45c3.6,3.82,8.8,5.45,15.19,5.45
		c6.59,0,12.63-1.74,16.41-5.65c4.19-4.34,4.96-11.15,4.96-19.58v-32.62C450.24,352.28,449.8,351.84,449.24,351.84z"/>
	<path d="M491.69,380.04c4.92-2.58,7.11-8.53,7.11-13.67c0-4.52-1.74-8.21-5.03-10.67c-3.66-2.96-10.39-4.28-17.77-4.28
		c-4.8,0-9.94,0.45-13.4,1.18c-0.46,0.1-0.79,0.51-0.79,0.98v55.03c0,0.5,0.37,0.92,0.86,0.99c1.82,0.25,6.4,0.23,12.02,0.23
		c9.43,0,17.69-0.76,21.73-4.45c0.01-0.01,0.01-0.01,0.02-0.02c3.34-3.24,3.83-7.85,3.83-12.52
		C500.28,385.23,496.7,382.06,491.69,380.04z M476.58,376.84h-5.56v-18.2c1.39-0.22,3.2-0.2,5.39-0.2c3.63,0,8.18-0.08,10.07,1.2
		c1.99,1.35,3.8,2.6,3.8,7.48C490.29,377.84,483.33,376.84,476.58,376.84z M476.08,402.63c-2.23,0-3.86-0.06-5.06-0.2v-19.46H476
		c12.13,0,15.69,4.07,15.69,9.79C491.69,404.84,481.07,402.63,476.08,402.63z"/>
	<path d="M544.27,401.72h-24.84v-18.17h21.55c0.55,0,1-0.45,1-1v-5.98c0-0.55-0.45-1-1-1h-21.55v-15.68h23.59c0.55,0,1-0.45,1-1
		v-6.06c0-0.55-0.45-1-1-1h-31.81c-0.55,0-1,0.45-1,1v55.94c0,0.55,0.45,1,1,1h33.06c0.55,0,1-0.45,1-1v-6.06
		C545.27,402.17,544.82,401.72,544.27,401.72z"/>
</g>
<linearGradient id="SVGID_00000144313918265021725100000000887775103699604144_" gradientUnits="userSpaceOnUse" x1="1135.3315" y1="-631.8107" x2="1190.1096" y2="-631.8107" gradientTransform="matrix(0.9903 0.1392 -0.1392 0.9903 -954.3587 754.7723)">
	<stop  offset="0" style="stop-color:#FFFFFF"/>
	<stop  offset="0.8" style="stop-color:#999999"/>
</linearGradient>
<path style="fill:url(#SVGID_00000144313918265021725100000000887775103699604144_);" d="M310.43,306.09
	C310.44,306.09,310.44,306.09,310.43,306.09c0.1,0.06,0.05-0.14,0.04-0.18c0.1,0.05,0.03-0.2,0.03-0.2
	c-0.01-0.03-0.02-0.09-0.03-0.16c0.02,0.01,0.04,0.02,0.05,0.03c0.11,0.06,0.03-0.21,0.03-0.21c-0.02-0.1-0.06-0.44-0.16-0.53
	c-0.03-0.16-0.08-0.34-0.15-0.38c-16.89-9.69-33.84-19.29-50.69-29.05c-0.12-0.07,0.02,0.27,0.02,0.25
	c0.01,0.02,0.02,0.05,0.03,0.08c-0.01-0.01-0.03-0.01-0.04-0.02c-0.09-0.05-0.04,0.12-0.01,0.2c-0.01,0.05,0.03,0.17,0.05,0.2
	c-0.02-0.01-0.04-0.03-0.07-0.04c-0.09-0.05-0.03,0.13-0.01,0.2c-0.08-0.03-0.02,0.16,0,0.2c-0.02-0.01-0.05-0.03-0.07-0.04
	c-0.11-0.06,0,0.22,0,0.21c0,0,0,0.01,0,0.01c-0.1-0.05,0,0.21,0,0.2c0.03,0.11,0.11,0.43,0.22,0.49
	c8.42,4.88,16.88,9.69,25.33,14.53c5.68,3.25,11.35,6.53,17.04,9.78c2.75,1.57,5.5,3.14,8.22,4.76c0.08,0.05,0.06-0.09,0.04-0.16
	c0.04,0.02,0.08,0.05,0.12,0.07c0.1,0.06,0.03-0.18,0.03-0.19C310.44,306.13,310.44,306.11,310.43,306.09z"/>
<path class="st11" d="M268.29,278.84c-1.61,0-6.8,1.2-8.4,2.6c-1.6,1.4-5.37,6-8.4,6c-3.2,0-33.4,0.8-44.3,2.1
	c-5.3-2.3-24.95-23.94-26.3-26.3c-0.8-1.4,0.5-2.3,1.3-2.9c0.8-0.6,8.3-6.3,12.1-5.7s9.7,2.9,11.7,3.1c2,0.2,3-0.6,3.2-1.2
	c0.2-0.6,0.6-3,0.6-3.4s0.6-1,1-1c0.4,0,1.7-0.7,1-1.6c-0.35-0.45,0.9-0.3,0.9-0.9c0-0.91-0.97-1.33-0.6-2.2
	c0.6-1.4,3.42-1.31,3.6-2.6c0.2-1.4-4.1-6.5-3.9-7.7s0.1-3.5,0.4-4.8c0.16-0.7,0.4-4.2,0.4-4.2s3.9,1.9,4.6,2.4
	c-0.5-1.7-3.4-3.2-3.4-3.2s5,0.8,6.6,0.8c1.6,0,4.4-1.4,5.5-2.3c-3.6,0-8.2,0.2-8.2-0.8c0-0.82,2.8-0.6,4.2-0.6
	c3.2,0,9.1-3.3,10-4.6c-8.6,1.4-16.2,0.2-14.4-1.8c0.85-0.94,4.6-1.2,5.6-3.6c-2.8,0.8-8.27,2.37-8.6,1.2c-0.4-1.4,5-3.2,4.6-5.2
	c-3.2,1.4-4.73,1.52-5.4,1c-0.9-0.7,4-4,0.8-7c-2.31-2.16-6.8-1.4-7,2c0.8,0,1.4,0,1.8,0.4c0.4,0.4-0.4,2.4-2.4,2.6
	s-5.36,0.12-6.4-0.4c-2.8-1.4,0.2-3-1.2-6.6c-1.4-3.6-3.2-6.4-3.2-6.4s-0.9,2.1-1.7,1.5c-0.8-0.6-1.7-6.1-8.9-5.7
	c-6.45,0.36-7.9,3.3-7.9,3.3s4.78,2.88,0.7,3.9c-2.4,0.6-4.8-2-8.4-1.8c-2.86,0.16-5.6,1.4-6.4,3.4c2.7-0.3,5-0.2,5.2,0.4
	c0.2,0.6-4.2,1.6-6.2,5.2c-0.83,1.49-0.6,8.6-0.2,10.6c2-2.8,3.6-4.8,4.2-4c0.6,0.8-0.2,2-0.2,3.2c0,1.41,1,2.4,1,3.4
	s-3.6,2.8-4.6,2.4c0,1.2,0.79,1.6,2.2,1.6c1.2,0,2.6-0.2,3.2-0.6c-1,1.2-2.6,5.6-1.2,8.4c1.4-1.6,2-3.4,4-3.4
	c2.41,0,3.3,4.1,3.2,5.8c-0.28,4.79,1.4,6,1.2,9c-0.13,2-1,2.6-4.8,4.4c-1.48,0.7-6.3,0.22-11.83-0.38
	c0.47-6.51,2.69-42.39-2.9-79.23c-3.11-20.52-11.03-43.95-21.71-64.28c-3.82-7.26-16.95-30.82-26.73-30.82c-0.07,0-0.14,0-0.21,0
	C96.68,72.7,86.54,92.36,83.11,99.71c-1.85-1.53-4.77-3.83-8.07-6.01c-7.93-5.22-13.7-6.92-17.65-5.2
	c-8.49,3.7-13.93,33.66-13.8,51.85c0.16,23.3,11.23,39.22,21.56,50.63c-12.3-5.73-14.03-4-14.77-3.26
	c-1.16,1.16-3.28,3.28,15.23,27.61c-23.32-3.72-25.34-1.7-26.03-1.01c-0.44,0.44-1.08,1.42-0.52,3.14
	c1.95,5.94,22.52,27.13,39.23,29.65c9.04,1.37,31.73,1.96,46.42,2.21c-6.13,1.6-11.65,3.11-13.62,3.11c-9.21,0-15.58,0.11-22.8,0.2
	c-16.2,0.2-31.91,3.67-41.4,4.2c-3.6,0.2-8.4-3.4-12.4-3.2s-8,0-9.2,0.8s-0.6,2.4-0.6,2.4s-8-0.8-9.2,0c-1.2,0.8-1.2,1.6-1.2,1.6
	s-2,0-3,0.4c-1.35,0.54-0.99,3.2,0.4,3.4c1.4,0.2,0.8,2.2,2.4,2.2c0.57,0,13.4,0,15.4,0s3.2,1.6,0.2,1.8c-3,0.2-6.6,0.6-6.6,2
	c0,1.8,3,1.8,5.8,1.8s12-3.6,17.4-4.2c4.84-0.54,29-1.4,35.6-1.4c6.6,0,20.8,0,25.2,0s16.4-0.6,20-0.6s-3,4-5.8,4
	s-11.6-0.6-16.8-0.2c-5.2,0.4-14.79,3.99-21.4,10.4c-6.6,6.4-14.58,23.39-13.2,28c0.6,2,5.8-4,7-3.4s0,7,1,7.6c1,0.6,4.4-3.2,5-2.6
	c0.6,0.6,0.05,14.99,0.2,19.6c0.4,12.4,2.8,22.2,2.2,25.2c-0.6,3-2.4,6-2.4,11.6c0,3.89,0.1,13.97,1.1,22.77
	c-0.63,0.69-1.11,1.16-1.4,1.33c-2,1.2-7.4,1.2-9.4,1.2s-5.2,6.6-6.2,10.2c-1,3.6-7.8,13.2-9,17c-1.2,3.8-1.6,12.8,0.8,12.6
	c2.4-0.2,13.8-18.6,16.1-21.1c2.65-2.88,7.48-8.13,10.94-11.2c0.02,0.07,0.04,0.14,0.06,0.2c2.35,7.55,3,11.2,3.6,15.4
	c0.6,4.2,1,6-0.4,7.6c-1.4,1.6-3.6,2.8-3.8,4.2c-0.2,1.4-0.6,3,0.6,5s4.4,6.6,6,11.2c1.6,4.6,4,12.8,7.2,15.8s6.5,5.1,8.1,4.1
	c1.6-1-0.4-5.8-2-10.6c-1.6-4.8-4.8-13.4-5.2-19.8c-0.24-3.89-0.45-26.56-0.39-44.52c5.64-4.67,11.54-9.45,13.99-10.88
	c4.8-2.8,19.2-12,22.4-13.8c3.2-1.8,3.6-5.6,2.4-10.4s-13.6-42.2-13.6-42.2s4.6,2.6,6.8,3.4c2.2,0.8-4.9-7.3-1.3-16.7
	c2.37-6.18,9.4-14.6,17.8-15c9.2-0.44,11.8,2.8,16,2.2c3.65-0.52,5.2-6.6,6.8-6.4c1.6,0.2,24.81,25.53,31.6,26.4c7.8,1,44-8.8,51-9
	c7-0.2,13.3-0.5,14.9-1.1c1.6-0.6,3.1-6.1,5.1-6.9c1.31-0.53,5.11-0.3,5.3-1.1C279.09,282.64,270.89,278.84,268.29,278.84z
	 M99.86,365.79c0.06-1.53,0.14-2.56,0.22-2.96c0.74-3.34,1.9-8.5,2.1-10.9c0.2-2.4,2.6-27.4,2.6-27.4l13.6,23.4
	C118.39,347.94,103.87,360.7,99.86,365.79z M129.52,169.46l0.05,0.12c1.56,3.34,3.06,6.85,4.51,10.45
	c1.73,4.67,3.34,9.23,4.84,13.62c-7.2-3.15-22-9.38-28.59-10.99l-0.16-0.04c-2.81-10.95-6.14-30.81,1.39-45.37
	c0.02,0,0.04-0.01,0.06-0.01C120.09,149.23,124.85,159.44,129.52,169.46z M119.27,140.73c5.3-2.78,10.79-5.23,22.9-4.51
	c-5.94,5.03-9.97,16.01-12.03,24.21C126.65,153.16,122.97,146.6,119.27,140.73z M139.78,196.22c6.34,18.97,10.42,34.73,12.56,43.68
	c-23.06-21.9-37.01-40.39-41.55-55.04C117.91,186.83,133.05,193.23,139.78,196.22z M107.02,177.95c-3.69-4.05-8.72-8.88-13.63-13.59
	c-2.71-2.6-5.46-5.24-7.99-7.76c-0.22-0.44-0.43-0.89-0.63-1.34c6.25-10.73,16.76-16.02,24.36-17.6
	C105.48,145.47,102.85,158.24,107.02,177.95z M92,165.8c6.1,5.86,12.4,11.91,15.97,16.3c0.11,0.46,0.23,0.92,0.35,1.39
	c2.13,8.2,7.25,17.6,15.28,28.11c-9.73-7.06-18.07-12.62-25.2-16.98l-0.22-0.43c-7.77-15.37-34.72-47.17-46.36-59.55
	c11.33,5.32,27.33,18.82,29.34,20.52l0.08,0.07c0.8,0.83,1.64,1.67,2.51,2.54c0.02,0.04,0.04,0.08,0.06,0.12l0.04-0.02
	C86.42,160.44,89.23,163.14,92,165.8z M128.99,218.59l0.71,0.54c6.46,7.58,14.28,15.68,23.47,24.28c0.12,0.53,0.23,1.03,0.33,1.47
	c-0.73-0.25-1.65-0.58-2.71-0.98c-0.33-0.14-0.69-0.29-1.08-0.44c-25.57-9.73-45.53-23.13-58.21-33.11
	c-0.32-0.26-0.64-0.5-0.96-0.76c-0.05-0.04-0.11-0.09-0.16-0.13c-0.91-0.74-1.82-1.49-2.72-2.25
	C97.89,208.04,123.09,214.04,128.99,218.59z M155.28,234.23c-2.5-9.96-6.44-24.48-11.44-39.23c3.79,3.24,8.71,6.73,11.28,8.5
	C155.65,215.69,155.54,226.43,155.28,234.23z M151.81,168.04c1.72,11.35,2.7,22.62,3.2,32.94c-3.55-2.49-9.43-6.78-12.55-9.97
	c-1.47-4.18-3.02-8.35-4.65-12.41c-0.12-0.32-0.24-0.64-0.36-0.97c-1.88-5.03-3.88-9.79-5.96-14.3c1.98-9.14,6.48-21.64,12.65-26.15
	C147.52,147.16,150.23,157.64,151.81,168.04z M143.16,134.28c-13.37-0.94-19.25,1.74-24.97,4.76c-1.66-2.58-3.32-5.03-4.96-7.33
	c0.38-12.16,3.44-29.77,11.02-37.48C130.74,104.65,137.69,118.76,143.16,134.28z M108.08,76.42c3.5,0.77,9.03,6.75,15.05,16.07
	c-8.14,7.87-11.12,24.99-11.8,36.64c-2.11-2.84-4.18-5.46-6.17-7.86C103.19,111.31,102.68,87.2,108.08,76.42z M93.03,89.81
	c4.7-7.51,9.16-12.12,12.77-13.22c-4.64,10.58-4.66,30.52-3.14,41.74c-7.58-8.68-13.75-13.93-16.35-15.99
	C87.41,99.95,89.87,94.87,93.03,89.81z M80.6,102.78c0.62,0.53,1.25,1.08,1.89,1.65c12.43,11.79,21.19,21.89,27.79,30.95
	c-0.01,0.01-0.01,0.02-0.02,0.03c-7.83,1.22-19.36,6.42-26.46,17.56C76.71,134.64,79.62,109.59,80.6,102.78z M60.48,91.92
	c3.21,0,9.66,2.39,18.32,9.38c-0.35,2.19-1.49,9.99-1.64,19.65c-0.14,9.01,0.6,21.25,4.42,31.76c-0.84-0.88-1.64-1.73-2.35-2.54
	c-14.31-16.1-19.37-43.32-19.35-58.21C60.07,91.94,60.26,91.92,60.48,91.92z M57.89,93c0.19,14,4.57,37.52,16.14,53.81
	c-7.56-5.87-18.25-13.43-25.61-15.66l-0.47-0.46C49.25,113.74,53.91,97.11,57.89,93z M60.62,179.17
	c-7.14-9.88-12.92-22.33-13.04-38.85c-0.02-2.3,0.05-4.64,0.18-6.99c8.78,8.8,37.46,42.1,47.27,59.27
	C74.31,180.34,64.66,178.86,60.62,179.17z M62.1,181.15c5.82,0.22,22.03,4.27,60.42,32.14c-11.5-4.23-30.59-8.2-37.29-8.15
	c-3.26-2.84-6.48-5.83-9.62-9.01C71.35,191.83,66.53,186.94,62.1,181.15z M54.04,190.98c3.52,0.81,11.98,4.71,19.12,8.57
	c1.12,1.15,6.21,6.26,14.73,13.06c8.53,6.91,17.17,12.73,25.28,17.55c-16.95-6.02-34.1-11.85-41.73-13.79
	C63.94,206.65,55.95,195.25,54.04,190.98z M69.83,220.09c11.75,2.79,53.22,17.7,73.74,25.39l-1.64,0.01
	c-17.71-7.96-33.7-9.42-45.92-8.46l0.05-0.11c-1.72-0.7-37.11-14.96-49.7-19.77C51.84,217.39,61.39,218.64,69.83,220.09z
	 M44.06,218.41c8.99,3.37,38.1,15.06,47.96,19.03c-8.15,1.05-14.22,3.1-17.44,4.63C62.21,237.84,48.25,224.34,44.06,218.41z
	 M77.61,242.92c9.24-3.62,31.74-8.34,59.2,2.56c-7.43-0.07-45.87-0.5-57.92-2.33C78.46,243.09,78.04,243.01,77.61,242.92z"/>
</svg>
